<svg width="402" height="180" viewBox="0 0 402 180" fill="none" xmlns="http://www.w3.org/2000/svg">
<path d="M95.1636 152.712C95.1636 183.269 70.3918 208.041 39.8343 208.041C9.27686 208.041 -15.4949 183.269 -15.4949 152.712C-15.4949 122.154 9.27686 97.3827 39.8343 97.3827C70.3918 97.3827 95.1636 122.154 95.1636 152.712Z" fill="#D7EEFE"/>
<path d="M371.547 144.715C371.547 144.715 378.092 131.024 377.849 108.671C377.607 86.3174 365.971 65.3613 351.669 59.4936C337.367 53.6258 324.761 61.1701 307.792 62.0083C290.824 62.8465 280.885 38.258 256.643 49.9934C232.402 61.7289 232.402 85.4792 236.523 96.9352C240.644 108.391 248.401 113.98 239.917 122.083C231.433 130.186 223.191 135.215 220.767 138.289C219.334 140.07 218.404 142.311 218.1 144.715H371.547Z" fill="#0B71BB"/>
<path d="M371.547 144.715C371.547 144.715 378.092 131.024 377.849 108.671C377.607 86.3174 365.971 65.3613 351.669 59.4936C337.367 53.6258 324.761 61.1701 307.792 62.0083C290.824 62.8465 280.885 38.258 256.643 49.9934C232.402 61.7289 232.402 85.4792 236.523 96.9352C240.644 108.391 248.401 113.98 239.917 122.083C231.433 130.186 223.191 135.215 220.767 138.289C219.334 140.07 218.404 142.311 218.1 144.715H371.547Z" fill="white"/>
<path d="M223.351 120.296C224.079 120.657 225.822 120.609 225.824 120.609C225.826 120.609 225.446 119.288 225.412 119.212C225.029 118.284 223.812 116.753 222.821 116.907C222.657 116.938 222.501 117.009 222.362 117.114C222.224 117.219 222.106 117.356 222.017 117.517C221.927 117.678 221.868 117.859 221.844 118.048C221.819 118.237 221.829 118.43 221.873 118.614C222.038 119.385 222.741 119.972 223.351 120.296Z" fill="#0B71BB"/>
<path d="M223.96 126.132C224.702 126.255 226.268 125.733 226.384 125.691C226.642 126.723 226.959 127.734 227.334 128.717C227.548 129.293 227.78 129.863 228.02 130.433C227.877 130.192 227.749 129.977 227.727 129.949C227.143 129.173 225.621 128.063 224.699 128.516C224.549 128.595 224.414 128.711 224.304 128.854C224.195 128.997 224.113 129.166 224.063 129.348C224.014 129.53 223.998 129.723 224.018 129.913C224.037 130.102 224.091 130.285 224.176 130.449C224.515 131.162 225.33 131.514 225.989 131.626C226.648 131.738 227.999 131.324 228.353 131.207L228.634 131.861C229.087 132.9 229.543 133.934 229.962 134.968C230.11 135.331 230.246 135.694 230.382 136.057C230.253 135.845 230.139 135.666 230.139 135.641C229.555 134.861 228.03 133.755 227.111 134.205C226.96 134.284 226.825 134.399 226.714 134.542C226.604 134.685 226.521 134.854 226.471 135.036C226.421 135.219 226.405 135.412 226.424 135.602C226.442 135.793 226.496 135.976 226.581 136.141C226.92 136.854 227.732 137.206 228.391 137.318C229.051 137.429 230.272 137.052 230.694 136.918C230.823 137.295 230.951 137.675 231.063 138.036C231.133 138.293 231.215 138.533 231.274 138.796C231.332 139.058 231.4 139.307 231.46 139.561C231.562 140.053 231.671 140.559 231.761 141.042C231.824 141.377 231.88 141.699 231.938 142.02C231.795 141.657 231.499 140.953 231.468 140.902C230.983 140.031 229.632 138.667 228.665 138.947C228.506 138.999 228.357 139.089 228.23 139.212C228.103 139.335 227.999 139.487 227.926 139.659C227.853 139.831 227.813 140.018 227.807 140.209C227.801 140.4 227.83 140.591 227.892 140.768C228.134 141.531 228.893 142.023 229.528 142.246C230.231 142.495 231.783 142.269 231.977 142.246C232.071 142.783 232.156 143.303 232.219 143.797C232.275 144.163 232.326 144.512 232.372 144.851H232.995C232.937 144.473 232.871 144.082 232.801 143.671C232.709 143.127 232.6 142.554 232.483 141.956C232.951 141.74 233.408 141.493 233.85 141.215C234.362 141.855 235.671 142.612 235.841 142.696C235.664 143.202 235.484 143.691 235.31 144.149C235.22 144.392 235.13 144.621 235.041 144.851H235.7L235.855 144.415C236.039 143.903 236.226 143.35 236.413 142.783C236.599 142.828 238.139 143.188 238.854 143.001C239.503 142.833 240.291 142.408 240.582 141.668C240.655 141.496 240.696 141.309 240.703 141.118C240.709 140.927 240.681 140.737 240.619 140.559C240.558 140.382 240.465 140.221 240.346 140.088C240.227 139.954 240.086 139.851 239.93 139.785C238.982 139.419 237.538 140.657 237.021 141.484C236.99 141.534 236.701 142.107 236.524 142.473C236.599 142.238 236.675 142.014 236.75 141.774C236.902 141.299 237.041 140.819 237.191 140.304C237.256 140.053 237.322 139.799 237.39 139.544C237.458 139.29 237.506 139.014 237.567 138.745C237.695 138.122 237.809 137.482 237.891 136.837C238.253 136.988 239.542 137.505 240.209 137.452C240.876 137.399 241.707 137.116 242.092 136.435C242.188 136.278 242.254 136.1 242.285 135.912C242.317 135.724 242.314 135.531 242.277 135.344C242.239 135.158 242.168 134.983 242.068 134.83C241.967 134.678 241.84 134.551 241.695 134.459C240.808 133.931 239.215 134.906 238.585 135.63C238.544 135.675 238.141 136.256 237.925 136.577C237.979 136.189 238.032 135.8 238.076 135.406C238.199 134.263 238.291 133.104 238.391 131.947C238.42 131.592 238.454 131.24 238.485 130.888C238.614 130.941 240.134 131.595 240.883 131.534C241.547 131.481 242.381 131.198 242.764 130.517C242.859 130.36 242.925 130.182 242.957 129.995C242.989 129.807 242.986 129.614 242.948 129.428C242.911 129.241 242.839 129.066 242.739 128.914C242.639 128.762 242.512 128.636 242.366 128.544C241.479 128.016 239.889 128.988 239.256 129.712C239.208 129.768 238.628 130.603 238.49 130.829C238.563 130.053 238.64 129.279 238.733 128.519C238.867 127.492 239.06 126.476 239.31 125.479C239.368 125.504 240.953 126.194 241.719 126.132C242.383 126.077 243.217 125.797 243.603 125.115C243.698 124.959 243.763 124.781 243.795 124.593C243.826 124.405 243.823 124.212 243.786 124.026C243.748 123.839 243.677 123.664 243.577 123.512C243.477 123.359 243.35 123.232 243.205 123.14C242.315 122.612 240.725 123.584 240.093 124.311C240.044 124.367 239.421 125.266 239.319 125.428C239.334 125.37 239.343 125.308 239.358 125.252C239.631 124.259 239.981 123.296 240.403 122.374C240.631 121.863 240.873 121.388 241.13 120.93C241.414 121.095 242.715 121.824 243.411 121.855C244.107 121.885 244.931 121.712 245.38 121.083C245.489 120.94 245.571 120.771 245.621 120.588C245.67 120.406 245.686 120.213 245.666 120.023C245.647 119.833 245.593 119.65 245.508 119.486C245.423 119.321 245.309 119.179 245.173 119.069C244.34 118.432 242.667 119.197 241.969 119.84C241.93 119.874 241.579 120.279 241.326 120.575C241.44 120.371 241.552 120.159 241.663 119.966C242.083 119.242 242.505 118.605 242.875 118.049C243.094 117.733 243.295 117.451 243.484 117.191C243.835 117.191 245.249 117.135 245.867 116.8C246.485 116.465 247.159 115.867 247.307 115.07C247.346 114.885 247.352 114.692 247.322 114.503C247.293 114.315 247.229 114.136 247.136 113.978C247.043 113.82 246.922 113.686 246.781 113.586C246.64 113.485 246.482 113.42 246.318 113.394C245.324 113.268 244.136 114.839 243.782 115.777C243.751 115.858 243.384 117.194 243.404 117.194H243.426C243.237 117.443 243.038 117.708 242.824 118.004C242.437 118.563 242.003 119.181 241.569 119.896C241.096 120.664 240.661 121.463 240.267 122.288C239.822 123.211 239.45 124.178 239.154 125.177C239.155 125.189 239.155 125.201 239.154 125.213C239.154 124.875 239.154 123.931 239.14 123.858C239.023 122.841 238.284 120.947 237.3 120.737C237.136 120.707 236.968 120.718 236.808 120.768C236.648 120.818 236.499 120.906 236.37 121.027C236.242 121.148 236.137 121.299 236.062 121.47C235.988 121.641 235.945 121.828 235.938 122.02C235.879 122.83 236.388 123.64 236.885 124.151C237.445 124.73 239.002 125.289 239.125 125.331C238.847 126.356 238.628 127.401 238.468 128.46C238.374 129.075 238.294 129.701 238.226 130.327C238.226 130.033 238.226 129.768 238.214 129.737C238.097 128.717 237.356 126.825 236.374 126.616C236.21 126.586 236.042 126.597 235.882 126.647C235.722 126.697 235.573 126.785 235.444 126.906C235.316 127.027 235.211 127.178 235.136 127.349C235.062 127.52 235.019 127.707 235.012 127.898C234.953 128.706 235.462 129.519 235.959 130.03C236.456 130.542 237.782 131.056 238.141 131.184C238.117 131.425 238.088 131.665 238.064 131.905C237.942 133.062 237.821 134.216 237.685 135.342C237.634 135.742 237.574 136.13 237.511 136.518C237.511 136.261 237.511 136.041 237.511 136.01C237.397 134.99 236.655 133.096 235.673 132.886C235.509 132.857 235.342 132.868 235.182 132.918C235.022 132.968 234.873 133.056 234.744 133.177C234.616 133.298 234.511 133.449 234.436 133.62C234.362 133.791 234.319 133.978 234.311 134.168C234.253 134.979 234.762 135.789 235.259 136.3C235.756 136.812 236.956 137.278 237.368 137.432C237.295 137.829 237.222 138.228 237.125 138.608C237.06 138.865 237.014 139.12 236.939 139.377C236.864 139.634 236.796 139.883 236.725 140.134C236.575 140.609 236.425 141.101 236.267 141.559C236.161 141.88 236.054 142.185 235.947 142.489C236.001 142.096 236.093 141.319 236.095 141.252C236.082 140.348 235.87 139.462 235.479 138.678C235.482 138.577 235.477 138.476 235.462 138.376C235.442 138.186 235.387 138.002 235.3 137.838C235.213 137.673 235.098 137.532 234.96 137.423C234.823 137.314 234.667 137.239 234.503 137.205C234.339 137.17 234.17 137.176 234.008 137.223C233.038 137.519 232.43 139.458 232.384 140.497C232.384 140.559 232.415 141.218 232.442 141.637C232.394 141.394 232.35 141.159 232.297 140.911C232.195 140.419 232.083 139.93 231.962 139.405C231.897 139.153 231.829 138.899 231.761 138.645C231.693 138.39 231.606 138.128 231.518 137.865C231.327 137.264 231.109 136.664 230.876 136.066C231.252 135.962 232.573 135.574 233.104 135.105C233.635 134.635 234.192 133.872 234.187 133.059C234.192 132.868 234.162 132.678 234.099 132.501C234.036 132.324 233.941 132.164 233.821 132.032C233.7 131.9 233.557 131.799 233.401 131.735C233.244 131.672 233.078 131.647 232.912 131.662C231.918 131.788 231.055 133.618 230.876 134.618C230.876 134.68 230.806 135.42 230.782 135.825C230.638 135.468 230.498 135.11 230.345 134.752C229.902 133.721 229.424 132.696 228.951 131.679C228.808 131.366 228.665 131.05 228.525 130.734C228.658 130.701 230.239 130.276 230.832 129.751C231.361 129.284 231.921 128.519 231.916 127.706C231.921 127.514 231.891 127.324 231.828 127.147C231.765 126.97 231.67 126.81 231.549 126.679C231.429 126.547 231.286 126.446 231.129 126.382C230.973 126.318 230.806 126.293 230.641 126.309C229.647 126.431 228.784 128.264 228.605 129.262C228.59 129.34 228.508 130.402 228.498 130.676C228.185 129.98 227.88 129.279 227.601 128.586C227.224 127.644 226.9 126.675 226.631 125.685C226.694 125.669 228.345 125.236 228.954 124.696C229.482 124.23 230.042 123.464 230.037 122.651C230.042 122.459 230.012 122.269 229.949 122.092C229.886 121.915 229.79 121.755 229.67 121.623C229.549 121.491 229.406 121.39 229.249 121.326C229.092 121.263 228.925 121.238 228.76 121.254C227.768 121.377 226.905 123.21 226.726 124.207C226.711 124.288 226.622 125.431 226.619 125.641C226.605 125.585 226.583 125.526 226.568 125.467C226.32 124.462 226.151 123.434 226.062 122.394C226.006 121.821 225.982 121.276 225.967 120.734C226.282 120.689 227.717 120.472 228.311 120.055C228.905 119.639 229.511 118.968 229.584 118.161C229.607 117.971 229.596 117.778 229.55 117.595C229.504 117.411 229.425 117.24 229.318 117.094C229.21 116.948 229.078 116.829 228.928 116.746C228.779 116.664 228.615 116.618 228.45 116.613C227.451 116.613 226.421 118.312 226.144 119.29C226.13 119.345 226.03 119.904 225.962 120.312C225.962 120.072 225.95 119.821 225.962 119.589C225.962 118.72 226.011 117.912 226.057 117.216C226.088 116.814 226.12 116.454 226.156 116.115C226.445 115.886 227.611 114.945 227.955 114.274C228.299 113.603 228.585 112.673 228.326 111.916C228.271 111.735 228.183 111.571 228.068 111.432C227.954 111.293 227.816 111.184 227.662 111.111C227.509 111.039 227.343 111.004 227.178 111.01C227.012 111.015 226.849 111.061 226.699 111.145C225.812 111.673 225.579 113.732 225.73 114.746C225.744 114.836 226.079 116.18 226.093 116.169H226.11C226.071 116.493 226.033 116.842 225.999 117.222C225.938 117.929 225.875 118.728 225.856 119.6C225.828 120.542 225.847 121.485 225.914 122.425C225.985 123.477 226.137 124.519 226.37 125.54V125.576C226.212 125.297 225.749 124.512 225.708 124.459C225.124 123.679 223.601 122.573 222.68 123.023C222.529 123.102 222.395 123.218 222.285 123.361C222.175 123.505 222.093 123.674 222.044 123.856C221.995 124.039 221.979 124.231 221.998 124.421C222.018 124.611 222.072 124.795 222.157 124.959C222.486 125.669 223.301 126.021 223.96 126.132Z" fill="#0B71BB"/>
<path d="M241.085 120.723C241.1 120.723 241.403 119.379 241.415 119.289C241.539 118.272 241.255 116.216 240.356 115.721C240.204 115.643 240.04 115.602 239.874 115.602C239.709 115.601 239.544 115.641 239.393 115.718C239.241 115.796 239.105 115.909 238.994 116.051C238.883 116.193 238.8 116.361 238.748 116.543C238.506 117.306 238.811 118.242 239.175 118.887C239.599 119.644 241.083 120.72 241.085 120.723Z" fill="#0B71BB"/>
<path d="M344.63 111.88C345.6 112.363 347.944 112.302 347.946 112.302C347.949 112.302 347.439 110.528 347.396 110.421C346.879 109.175 345.248 107.122 343.92 107.328C343.7 107.369 343.49 107.463 343.303 107.604C343.117 107.745 342.959 107.929 342.839 108.146C342.719 108.362 342.639 108.605 342.606 108.859C342.573 109.113 342.587 109.372 342.647 109.619C342.868 110.678 343.811 111.466 344.63 111.88Z" fill="#0B71BB"/>
<path d="M345.445 119.736C346.441 119.904 348.541 119.203 348.708 119.144C349.054 120.53 349.48 121.887 349.983 123.207C350.271 123.978 350.582 124.744 350.904 125.506C350.713 125.182 350.538 124.894 350.511 124.858C349.726 123.816 347.682 122.329 346.449 122.933C346.246 123.04 346.066 123.195 345.918 123.388C345.771 123.58 345.661 123.807 345.595 124.052C345.528 124.297 345.508 124.555 345.534 124.81C345.56 125.065 345.632 125.311 345.746 125.532C346.201 126.487 347.292 126.959 348.17 127.107C349.047 127.256 350.868 126.702 351.343 126.549C351.469 126.842 351.585 127.133 351.719 127.423C352.325 128.82 352.931 130.217 353.5 131.592C353.702 132.081 353.881 132.57 354.063 133.056C353.893 132.777 353.748 132.531 353.721 132.497C352.938 131.452 350.894 129.969 349.661 130.572C349.458 130.679 349.277 130.833 349.13 131.025C348.982 131.218 348.872 131.444 348.806 131.689C348.739 131.934 348.719 132.192 348.745 132.447C348.771 132.702 348.843 132.948 348.958 133.168C349.413 134.124 350.504 134.596 351.382 134.747C352.259 134.898 353.903 134.392 354.468 134.213C354.642 134.719 354.817 135.224 354.952 135.725C355.047 136.068 355.158 136.392 355.236 136.745C355.314 137.097 355.403 137.432 355.478 137.773C355.614 138.432 355.76 139.111 355.881 139.759C355.966 140.209 356.041 140.64 356.123 141.073C355.929 140.584 355.534 139.639 355.493 139.564C354.858 138.396 353.03 136.571 351.733 136.951C351.519 137.022 351.32 137.143 351.149 137.308C350.978 137.472 350.84 137.677 350.742 137.907C350.644 138.138 350.589 138.39 350.581 138.646C350.573 138.903 350.612 139.158 350.696 139.396C351.02 140.422 352.036 141.073 352.892 141.38C353.832 141.713 355.917 141.408 356.177 141.38C356.303 142.098 356.419 142.797 356.518 143.459C356.591 143.948 356.661 144.42 356.724 144.873H357.558C357.478 144.37 357.393 143.842 357.299 143.291C357.173 142.562 357.027 141.785 356.872 140.989C357.5 140.7 358.112 140.369 358.705 139.997C359.391 140.852 361.148 141.855 361.371 141.981C361.129 142.66 360.887 143.316 360.661 143.937C360.538 144.264 360.419 144.571 360.298 144.878H361.182C361.25 144.686 361.321 144.496 361.391 144.294C361.633 143.607 361.888 142.867 362.137 142.104C362.38 142.165 364.452 142.649 365.415 142.383C366.288 142.157 367.354 141.587 367.732 140.595C367.83 140.365 367.884 140.115 367.892 139.86C367.901 139.605 367.862 139.35 367.78 139.113C367.697 138.876 367.573 138.662 367.414 138.484C367.255 138.306 367.065 138.168 366.857 138.08C365.587 137.586 363.648 139.251 362.937 140.36C362.896 140.424 362.511 141.198 362.273 141.685C362.375 141.372 362.474 141.07 362.576 140.749C362.78 140.111 362.964 139.469 363.168 138.776L363.432 137.756C363.526 137.415 363.589 137.043 363.674 136.686C363.846 135.848 363.987 134.993 364.111 134.124C364.595 134.328 366.324 135.021 367.218 134.948C368.113 134.875 369.23 134.498 369.747 133.584C369.874 133.374 369.962 133.136 370.005 132.884C370.047 132.632 370.043 132.373 369.993 132.123C369.942 131.873 369.847 131.638 369.713 131.434C369.578 131.229 369.408 131.059 369.213 130.935C368.021 130.226 365.888 131.531 365.039 132.506C364.986 132.564 364.445 133.344 364.154 133.777C364.227 133.255 364.3 132.735 364.355 132.204C364.52 130.67 364.646 129.116 364.777 127.563C364.818 127.088 364.862 126.616 364.906 126.141C365.078 126.216 367.117 127.091 368.12 127.01C369.012 126.937 370.132 126.56 370.648 125.646C370.776 125.436 370.864 125.197 370.906 124.945C370.949 124.693 370.945 124.433 370.894 124.183C370.844 123.933 370.749 123.698 370.615 123.493C370.48 123.289 370.31 123.119 370.115 122.994C368.923 122.288 366.787 123.592 365.941 124.565C365.875 124.64 365.1 125.758 364.913 126.054C365.01 125.012 365.114 123.972 365.252 122.953C365.433 121.575 365.69 120.212 366.023 118.873C366.103 118.907 368.229 119.831 369.257 119.75C370.149 119.678 371.267 119.301 371.783 118.384C371.911 118.174 371.999 117.935 372.041 117.684C372.083 117.432 372.079 117.172 372.029 116.923C371.979 116.673 371.883 116.438 371.749 116.233C371.615 116.029 371.445 115.859 371.25 115.735C370.059 115.026 367.924 116.333 367.075 117.306C367.01 117.381 366.174 118.585 366.035 118.817C366.057 118.739 366.069 118.658 366.091 118.58C366.467 117.242 366.947 115.946 367.524 114.707C367.829 114.02 368.154 113.38 368.493 112.768C368.874 112.989 370.622 113.967 371.555 114.008C372.447 114.05 373.596 113.816 374.195 112.975C374.342 112.782 374.453 112.556 374.519 112.311C374.585 112.066 374.606 111.807 374.58 111.553C374.554 111.298 374.482 111.052 374.368 110.831C374.254 110.611 374.101 110.421 373.919 110.273C372.801 109.418 370.554 110.446 369.618 111.304C369.567 111.351 369.097 111.893 368.758 112.293C368.91 112.013 369.061 111.734 369.211 111.474C369.773 110.502 370.338 109.65 370.845 108.901C371.133 108.476 371.405 108.102 371.662 107.752C372.132 107.752 374.028 107.677 374.857 107.227C375.686 106.777 376.59 105.972 376.796 104.905C376.849 104.656 376.857 104.397 376.818 104.144C376.778 103.892 376.693 103.652 376.568 103.44C376.443 103.227 376.281 103.048 376.092 102.913C375.902 102.778 375.691 102.69 375.47 102.656C374.137 102.488 372.561 104.595 372.076 105.855C372.035 105.964 371.548 107.755 371.572 107.752H371.599C371.356 108.082 371.08 108.44 370.796 108.836C370.275 109.577 369.691 110.415 369.099 111.379C368.464 112.409 367.88 113.48 367.352 114.587C366.755 115.824 366.256 117.12 365.861 118.46C365.856 118.476 365.852 118.493 365.849 118.51C365.849 118.057 365.849 116.791 365.827 116.694C365.672 115.327 364.678 112.782 363.359 112.502C363.139 112.463 362.915 112.478 362.7 112.545C362.485 112.613 362.285 112.732 362.113 112.894C361.94 113.056 361.8 113.258 361.699 113.488C361.599 113.717 361.542 113.967 361.531 114.224C361.454 115.311 362.137 116.397 362.804 117.085C363.556 117.859 365.643 118.608 365.808 118.666C365.435 120.04 365.141 121.44 364.928 122.858C364.799 123.696 364.685 124.52 364.595 125.372C364.595 124.981 364.595 124.632 364.579 124.584C364.423 123.215 363.429 120.673 362.111 120.393C361.891 120.353 361.666 120.367 361.451 120.434C361.236 120.501 361.036 120.619 360.863 120.781C360.69 120.944 360.549 121.146 360.449 121.375C360.348 121.604 360.291 121.855 360.281 122.112C360.205 123.198 360.889 124.285 361.556 124.973C362.222 125.66 363.999 126.35 364.465 126.523C364.431 126.845 364.392 127.169 364.358 127.49C364.198 129.041 364.043 130.589 363.851 132.101C363.783 132.634 363.701 133.157 363.609 133.679C363.609 133.333 363.609 133.039 363.592 132.995C363.439 131.626 362.445 129.083 361.127 128.804C360.906 128.764 360.682 128.778 360.467 128.846C360.252 128.913 360.051 129.032 359.879 129.194C359.706 129.356 359.565 129.559 359.465 129.788C359.364 130.017 359.307 130.268 359.296 130.525C359.219 131.612 359.905 132.699 360.571 133.386C361.238 134.073 362.843 134.694 363.4 134.903C363.303 135.434 363.206 135.968 363.09 136.479C363.005 136.826 362.942 137.166 362.848 137.51C362.753 137.854 362.656 138.192 362.562 138.527C362.36 139.164 362.157 139.824 361.946 140.441C361.803 140.869 361.66 141.279 361.517 141.687C361.59 141.156 361.713 140.117 361.713 140.028C361.7 138.814 361.416 137.625 360.889 136.574C360.891 136.439 360.884 136.305 360.867 136.172C360.84 135.917 360.766 135.672 360.65 135.452C360.535 135.233 360.381 135.044 360.198 134.897C360.015 134.751 359.807 134.651 359.588 134.603C359.37 134.556 359.145 134.562 358.928 134.621C357.631 135.018 356.812 137.639 356.746 139.016C356.746 139.097 356.79 139.983 356.826 140.542C356.761 140.218 356.7 139.902 356.63 139.569C356.494 138.907 356.341 138.253 356.181 137.549C356.093 137.212 356.003 136.871 355.912 136.527C355.83 136.186 355.704 135.834 355.6 135.484C355.343 134.677 355.049 133.872 354.739 133.07C355.241 132.93 357.013 132.411 357.726 131.779C358.438 131.148 359.18 130.128 359.18 129.035C359.186 128.779 359.145 128.524 359.06 128.287C358.975 128.05 358.848 127.836 358.687 127.659C358.525 127.483 358.333 127.347 358.123 127.262C357.914 127.176 357.69 127.143 357.469 127.163C356.135 127.331 354.979 129.779 354.737 131.128C354.722 131.212 354.642 132.204 354.608 132.752C354.419 132.271 354.23 131.79 354.024 131.31C353.428 129.93 352.788 128.552 352.155 127.172C351.961 126.75 351.772 126.333 351.58 125.906C351.76 125.858 353.881 125.291 354.678 124.584C355.386 123.958 356.133 122.933 356.133 121.84C356.139 121.584 356.098 121.329 356.012 121.092C355.927 120.855 355.799 120.642 355.638 120.465C355.476 120.289 355.284 120.154 355.074 120.069C354.864 119.984 354.641 119.95 354.419 119.971C353.088 120.136 351.932 122.584 351.689 123.933C351.67 124.037 351.559 125.465 351.546 125.828C351.127 124.897 350.715 123.964 350.334 123.034C349.825 121.77 349.388 120.47 349.025 119.141C349.11 119.119 351.323 118.538 352.14 117.817C352.851 117.188 353.595 116.163 353.595 115.073C353.601 114.816 353.561 114.561 353.476 114.324C353.391 114.087 353.264 113.873 353.102 113.696C352.941 113.519 352.749 113.384 352.539 113.299C352.329 113.213 352.105 113.18 351.883 113.201C350.55 113.366 349.394 115.813 349.151 117.166C349.134 117.272 349.013 118.806 349.008 119.085C348.989 119.01 348.96 118.932 348.941 118.856C348.611 117.508 348.387 116.129 348.269 114.735C348.194 113.967 348.16 113.229 348.141 112.5C348.562 112.441 350.49 112.145 351.292 111.589C352.094 111.033 352.904 110.13 353.001 109.043C353.031 108.789 353.014 108.531 352.952 108.284C352.89 108.038 352.783 107.81 352.639 107.614C352.496 107.418 352.318 107.259 352.117 107.148C351.917 107.037 351.699 106.975 351.476 106.967C350.136 106.967 348.754 109.25 348.385 110.563C348.364 110.633 348.23 111.385 348.143 111.932C348.143 111.608 348.128 111.273 348.143 110.963C348.143 109.795 348.208 108.728 348.272 107.777C348.313 107.241 348.356 106.755 348.405 106.302C348.793 105.995 350.344 104.732 350.829 103.832C351.314 102.932 351.675 101.681 351.326 100.666C351.251 100.425 351.133 100.204 350.98 100.018C350.826 99.8326 350.641 99.6862 350.435 99.5887C350.229 99.4912 350.008 99.4447 349.786 99.4523C349.563 99.4598 349.345 99.5212 349.144 99.6325C347.952 100.342 347.639 103.106 347.835 104.466C347.855 104.584 348.303 106.386 348.32 106.372L348.342 106.352C348.288 106.788 348.238 107.258 348.191 107.769C348.109 108.716 348.024 109.786 348 110.96C347.962 112.223 347.988 113.487 348.08 114.746C348.173 116.161 348.377 117.564 348.688 118.937C348.688 118.951 348.688 118.968 348.688 118.985C348.478 118.602 347.857 117.557 347.801 117.484C347.018 116.439 344.975 114.956 343.741 115.559C343.538 115.666 343.358 115.821 343.211 116.014C343.064 116.207 342.953 116.433 342.887 116.678C342.821 116.923 342.8 117.181 342.826 117.436C342.852 117.691 342.924 117.937 343.038 118.158C343.469 119.116 344.56 119.588 345.445 119.736Z" fill="#0B71BB"/>
<path d="M368.428 112.472C368.447 112.489 368.855 110.67 368.869 110.553C369.034 109.187 368.656 106.434 367.449 105.764C367.246 105.659 367.026 105.604 366.803 105.603C366.58 105.602 366.36 105.656 366.157 105.759C365.953 105.863 365.771 106.015 365.622 106.206C365.473 106.396 365.36 106.621 365.291 106.865C364.969 107.89 365.378 109.147 365.863 110.011C366.433 111.033 368.425 112.472 368.428 112.472Z" fill="#0B71BB"/>
<path d="M288.846 81.0346H366.016L356.028 144.853H278.859L288.846 81.0346Z" fill="white"/>
<path d="M364.474 81.0346L354.487 144.856H277.32L287.307 81.0346H364.474Z" fill="#263238"/>
<path d="M289.412 83.0347H361.74L352.378 142.852H280.05L289.412 83.0347Z" fill="#0B71BB"/>
<path d="M280.781 138.177L280.049 142.855H352.378L353.11 138.177H280.781Z" fill="#BFBFBF"/>
<path d="M359.595 83.0354L350.234 142.853H352.376L361.738 83.0354H359.595Z" fill="#BFBFBF"/>
<path d="M358.34 104.776L360.16 93.1382H358.02L356.197 104.776H358.34Z" fill="#A1A1A1"/>
<path d="M354.852 140.629H260.127V144.854H354.852V140.629Z" fill="white"/>
<path d="M273.63 140.629H227.136V144.854H273.63V140.629Z" fill="#263238"/>
<path d="M288.748 87.261H361.076L361.738 83.0354L289.41 83.0362L288.748 87.261Z" fill="#BFBFBF"/>
<path d="M293.301 85.9449H327.753L328.068 83.9311H293.616L293.301 85.9449Z" fill="white"/>
<path d="M291.61 106.36H318.326L314.87 128.456H288.153L291.61 106.36Z" fill="black"/>
<path d="M289.96 104.318H316.678L313.222 126.412H286.503L289.96 104.318Z" fill="white"/>
<path d="M316.276 106.893L316.681 104.319H289.962L289.56 106.893H316.276Z" fill="#263238"/>
<path d="M315.197 105.661C315.198 105.812 315.159 105.96 315.087 106.085C315.014 106.211 314.911 106.309 314.79 106.367C314.669 106.425 314.535 106.441 314.407 106.411C314.278 106.382 314.16 106.309 314.067 106.203C313.975 106.096 313.912 105.96 313.886 105.812C313.861 105.664 313.874 105.51 313.924 105.371C313.975 105.231 314.06 105.112 314.169 105.029C314.278 104.945 314.407 104.901 314.538 104.902C314.713 104.902 314.88 104.982 315.004 105.124C315.128 105.266 315.197 105.46 315.197 105.661Z" fill="white"/>
<path d="M300.322 109.345C301.621 109.562 302.031 110.761 301.737 112.466L301.679 112.809H300.53L300.605 112.373C300.797 111.256 300.523 110.56 299.636 110.56C298.748 110.56 298.259 111.25 298.067 112.373C297.582 115.221 301.274 115.24 300.663 118.8C300.372 120.504 299.534 121.72 298.159 121.938L297.994 122.899H296.988L297.153 121.938C295.822 121.72 295.413 120.521 295.699 118.8L295.832 118.02H296.981L296.833 118.889C296.637 120.032 296.935 120.686 297.817 120.686C298.7 120.686 299.219 120.032 299.413 118.889C299.897 116.062 296.222 116.025 296.833 112.463C297.129 110.722 297.939 109.579 299.301 109.342L299.476 108.327H300.482L300.322 109.345Z" fill="#263238"/>
<path d="M302.819 120.228L302.518 121.988H301.338L301.638 120.228H302.819ZM302.472 115.262L303.493 109.297H304.719L303.699 115.262L302.872 119.174H301.971L302.472 115.262Z" fill="#263238"/>
<path d="M305.306 120.228L305.006 121.988H303.825L304.126 120.228H305.306ZM304.962 115.262L305.98 109.297H307.209L306.189 115.262L305.367 119.174H304.453L304.962 115.262Z" fill="#263238"/>
<path d="M359.669 111.724L355.235 140.06H327.564L332 111.724H359.669Z" fill="black"/>
<path d="M329.968 109.827H364.23L359.796 138.163H325.534L329.968 109.827Z" fill="white"/>
<path d="M363.712 113.129L364.228 109.827H329.966L329.45 113.129H363.712Z" fill="#263238"/>
<path d="M362.33 111.554C362.33 111.747 362.28 111.936 362.187 112.097C362.093 112.258 361.961 112.383 361.805 112.457C361.65 112.531 361.479 112.55 361.315 112.512C361.15 112.474 360.999 112.381 360.88 112.244C360.762 112.107 360.681 111.932 360.649 111.743C360.616 111.553 360.634 111.356 360.698 111.178C360.763 110.999 360.872 110.847 361.012 110.739C361.152 110.632 361.316 110.575 361.484 110.576C361.595 110.576 361.705 110.601 361.808 110.65C361.911 110.7 362.004 110.772 362.083 110.863C362.161 110.953 362.224 111.061 362.266 111.18C362.308 111.298 362.33 111.425 362.33 111.554Z" fill="white"/>
<path d="M333.494 123.771C333.763 123.343 334.118 122.997 334.527 122.759C334.937 122.522 335.39 122.401 335.848 122.407C337.683 122.407 338.233 123.958 337.831 126.319L337.281 129.541C336.851 132.055 335.53 133.698 333.349 133.698C331.167 133.698 330.44 132.055 330.859 129.541L331.048 128.423H332.537L332.328 129.647C332.086 131.128 332.452 132.019 333.593 132.019C334.735 132.019 335.419 131.128 335.671 129.647L336.216 126.439C336.471 124.958 336.093 124.064 334.951 124.064C334.076 124.064 333.387 124.623 333.038 125.827L332.975 126.205H331.487L333.438 117.062H339.057L338.776 118.708H334.582L333.494 123.771Z" fill="#263238"/>
<path d="M340.137 121.045C340.566 118.53 341.926 116.909 344.105 116.909C346.284 116.909 347.111 118.533 346.682 121.045L345.227 129.53C344.798 132.045 343.436 133.688 341.235 133.688C339.034 133.688 338.253 132.045 338.685 129.53L340.137 121.045ZM340.236 129.648C339.994 131.129 340.382 132.02 341.523 132.02C342.665 132.02 343.368 131.129 343.62 129.648L345.116 120.952C345.373 119.446 344.995 118.555 343.831 118.555C342.668 118.555 341.986 119.446 341.729 120.952L340.236 129.648Z" fill="#263238"/>
<path d="M349.844 118.497L349.481 120.691C349.367 121.367 349.013 121.809 348.429 121.809C347.844 121.809 347.643 121.361 347.76 120.691L348.135 118.497C348.249 117.832 348.601 117.38 349.187 117.38C349.774 117.38 349.966 117.832 349.844 118.497ZM352.026 117.416L348.46 124.365H348.055L351.614 117.416H352.026ZM348.564 118.467L348.179 120.73C348.113 121.107 348.179 121.356 348.501 121.356C348.824 121.356 348.986 121.107 349.039 120.73L349.427 118.467C349.49 118.089 349.406 117.832 349.105 117.832C348.804 117.832 348.623 118.089 348.557 118.467H348.564ZM352.37 121.088L351.997 123.273C351.883 123.946 351.539 124.39 350.945 124.39C350.351 124.39 350.159 123.943 350.276 123.273L350.649 121.088C350.763 120.423 351.115 119.97 351.699 119.97C352.283 119.97 352.477 120.423 352.363 121.088H352.37ZM351.083 121.06L350.693 123.312C350.627 123.689 350.712 123.946 351.013 123.946C351.313 123.946 351.498 123.689 351.553 123.312L351.939 121.06C352.002 120.682 351.917 120.434 351.614 120.434C351.311 120.434 351.141 120.682 351.076 121.06H351.083Z" fill="#263238"/>
<path d="M346.269 126.949C346.511 125.594 347.239 124.714 348.409 124.714C349.58 124.714 350.029 125.586 349.796 126.949L349.013 131.535C348.771 132.879 348.043 133.77 346.863 133.77C345.682 133.77 345.256 132.884 345.486 131.535L346.269 126.949ZM346.322 131.588C346.184 132.398 346.4 132.865 347.016 132.865C347.631 132.865 348.007 132.398 348.148 131.588L348.948 126.899C349.086 126.103 348.882 125.619 348.254 125.619C347.626 125.619 347.26 126.103 347.125 126.899L346.322 131.588Z" fill="#263238"/>
<path d="M352.898 128.935L352.746 129.835H350.976L350.319 133.674H349.461L350.978 124.805H354.033L353.88 125.705H351.681L351.129 128.935H352.898Z" fill="#263238"/>
<path d="M356.635 128.936L356.482 129.835H354.712L354.055 133.674H353.2L354.715 124.806H357.769L357.616 125.705H355.418L354.868 128.936H356.635Z" fill="#263238"/>
<path d="M306.278 81.0366L303.747 97.2092H284.773L287.304 81.0366H306.278Z" fill="black"/>
<path d="M270.46 64.5483H306.942L302.223 94.7224H265.737L270.46 64.5483Z" fill="white"/>
<path d="M291.367 64.5482L289.256 67.4988L289.106 64.5482H288.352L287.111 67.1188L286.514 64.5482H285.685L284.905 67.2362L283.722 64.5482H283.109L282.728 67.8481L280.415 64.5677L280.658 68.9238L277.795 66.2806L278.779 70.4271L275.473 68.5243L277.162 72.302L273.541 71.2094L275.87 74.473L272.072 74.2327L274.949 76.8564L271.121 77.4795L274.437 79.3628L270.726 80.8241L274.357 81.8943L270.903 84.138L274.707 84.3532L271.645 87.2926L275.473 86.6472L272.922 90.1706L276.629 88.6869L274.687 92.6574L278.132 90.3941L276.871 94.6608L279.918 91.7018L279.555 94.7223H280.377L281.923 92.5624L282.035 94.7223H283.208L284.071 92.9396L284.483 94.7223H285.724L286.274 92.8223L287.113 94.7223H288.163L288.454 92.2131L290.223 94.7223H290.723L290.521 91.1346L293.387 93.7778L292.4 89.6313L295.709 91.5369L294.017 87.7564L297.641 88.8517L295.312 85.5882L299.11 85.8285L296.23 83.202L300.06 82.5817L296.742 80.6984L300.453 79.2371L296.824 78.1669L300.276 75.9232L296.475 75.7052L299.534 72.7658L295.707 73.4112L298.257 69.8878L294.55 71.3743L296.492 67.401L293.05 69.6671L294.31 65.3976L291.263 68.3566L291.721 64.5482H291.367Z" fill="white"/>
<path d="M306.391 68.066L306.941 64.5482H270.458L269.908 68.066H306.391Z" fill="#263238"/>
<path d="M304.923 66.3876C304.923 66.5938 304.871 66.7957 304.772 66.9674C304.672 67.1392 304.531 67.2731 304.366 67.3523C304.201 67.4315 304.019 67.4524 303.843 67.4123C303.667 67.3722 303.506 67.2729 303.379 67.127C303.253 66.9812 303.167 66.7953 303.132 66.5929C303.097 66.3906 303.115 66.1809 303.184 65.9904C303.253 65.7999 303.369 65.6372 303.518 65.5229C303.667 65.4087 303.842 65.348 304.021 65.3485C304.26 65.3485 304.49 65.458 304.659 65.6529C304.828 65.8477 304.923 66.112 304.923 66.3876Z" fill="white"/>
<path d="M280.494 75.4334C281.769 75.4334 282.152 76.1347 281.914 77.5234L281.839 77.9677C281.667 78.9652 281.316 79.5855 280.559 79.8426C281.311 80.0996 281.49 80.8261 281.313 81.8655L281.175 82.6591C280.933 84.0757 280.205 84.8721 278.928 84.8721H277.044L278.656 75.4334H280.494ZM279.09 83.9137C279.757 83.9137 280.13 83.5085 280.28 82.6339L280.424 81.7957C280.603 80.7451 280.3 80.3986 279.517 80.3986H278.722L278.121 83.9164L279.09 83.9137ZM279.587 79.443C280.314 79.443 280.731 79.1636 280.901 78.1884L280.996 77.6296C281.139 76.7913 280.962 76.389 280.307 76.389H279.405L278.884 79.4346L279.587 79.443Z" fill="#263238"/>
<path d="M282.875 82.6443C282.729 83.4826 282.936 84.0079 283.602 84.0079C284.269 84.0079 284.637 83.4938 284.783 82.6443L286.014 75.4326H286.87L285.643 82.5912C285.401 84.0219 284.674 84.9774 283.401 84.9774C282.128 84.9774 281.74 84.0219 281.983 82.5912L283.207 75.4326H284.109L282.875 82.6443Z" fill="#263238"/>
<path d="M288.186 81.4879L287.49 75.433H288.438L288.923 80.0713L291.003 75.433H291.868L289.09 81.4879L288.511 84.8717H287.611L288.186 81.4879Z" fill="#263238"/>
<path d="M292.016 83.5652L291.793 84.8728H290.916L291.139 83.5652H292.016ZM291.759 79.8713L292.516 75.4342H293.427L292.668 79.8713L292.055 82.7828H291.376L291.759 79.8713Z" fill="#263238"/>
<path d="M352.014 81.037L349.464 97.3297H322.745L325.295 81.037H352.014Z" fill="black"/>
<path d="M324.687 73.1906H351.406L347.947 95.284H321.231L324.687 73.1906Z" fill="white"/>
<path d="M351.002 75.7633L351.407 73.1898H324.688L324.286 75.7633H351.002Z" fill="#263238"/>
<path d="M349.267 75.296C349.632 75.296 349.929 74.9547 349.929 74.5338C349.929 74.1129 349.632 73.7716 349.267 73.7716C348.901 73.7716 348.605 74.1129 348.605 74.5338C348.605 74.9547 348.901 75.296 349.267 75.296Z" fill="white"/>
<path d="M332.373 81.4012L331.859 84.3993H331.215L332.354 77.7353H332.999L332.487 80.7334H333.908L334.419 77.7353H335.064L333.925 84.3993H333.28L333.794 81.4012H332.373Z" fill="#263238"/>
<path d="M335.402 79.3453C335.574 78.3254 336.129 77.6688 337.009 77.6688C337.889 77.6688 338.221 78.3254 338.052 79.3453L337.462 82.7905C337.29 83.7992 336.735 84.4669 335.848 84.4669C334.961 84.4669 334.636 83.7992 334.81 82.7905L335.402 79.3453ZM335.441 82.8296C335.337 83.4387 335.499 83.7908 335.962 83.7908C336.425 83.7908 336.709 83.4387 336.813 82.8296L337.414 79.3062C337.518 78.7054 337.365 78.345 336.893 78.345C336.42 78.345 336.146 78.7054 336.044 79.3062L335.441 82.8296Z" fill="#263238"/>
<path d="M338.631 84.3989L339.654 78.4111H338.59L338.706 77.7349H341.482L341.365 78.4111H340.301L339.276 84.3989H338.631Z" fill="#263238"/>
<path d="M330.633 86.7378L330.604 86.9194H329.993L330.03 86.6987C330.132 86.1007 329.993 85.7487 329.533 85.7487C329.072 85.7487 328.806 86.1007 328.709 86.6903C328.454 88.1852 330.372 88.3277 330.049 90.2025C329.877 91.2112 329.344 91.879 328.461 91.879C327.579 91.879 327.276 91.2196 327.448 90.2025L327.513 89.8225H328.117L328.044 90.2417C327.943 90.8424 328.098 91.1945 328.558 91.1945C329.019 91.1945 329.298 90.8424 329.399 90.2417C329.654 88.7552 327.744 88.6127 328.066 86.7378C328.241 85.7095 328.764 85.0613 329.63 85.0613C330.495 85.0613 330.818 85.7291 330.633 86.7378Z" fill="#263238"/>
<path d="M331.218 90.4598L330.764 91.7926H330.17L332.417 85.1286H333.351L333.317 91.7926H332.674V90.4487L331.218 90.4598ZM331.409 89.8228H332.699V85.9752L331.409 89.8228Z" fill="#263238"/>
<path d="M333.823 91.7923L334.962 85.1282H335.607L334.584 91.1161H336.235L336.118 91.7923H333.823Z" fill="#263238"/>
<path d="M339.298 88.0892L339.184 88.7542H337.771L337.359 91.1265H339.092L338.983 91.7915H336.602L337.742 85.1274H340.122L340.006 85.8008H338.273L337.882 88.078L339.298 88.0892Z" fill="#263238"/>
<path d="M340.366 90.8783L340.208 91.8031H339.587L339.745 90.8783H340.366ZM340.184 88.2713L340.72 85.1391H341.364L340.829 88.2713L340.395 90.3278H339.91L340.184 88.2713Z" fill="#263238"/>
<path d="M341.67 90.8791L341.512 91.8039H340.894L341.052 90.8791H341.67ZM341.483 88.2721L342.019 85.1399H342.664L342.128 88.2721L341.694 90.3286H341.209L341.483 88.2721Z" fill="#263238"/>
<path d="M413.86 -8.85143C413.86 21.7061 389.088 46.4778 358.531 46.4778C327.973 46.4778 303.202 21.7061 303.202 -8.85143C303.202 -39.4089 327.973 -64.1807 358.531 -64.1807C389.088 -64.1807 413.86 -39.4089 413.86 -8.85143Z" fill="#D7EEFE"/>
</svg>
